<svg viewBox="0 0 1065.000000 1280.000000" preserveAspectRatio="xMidYMid meet">
  <g transform="translate(0.000000,1280.000000) scale(0.100000,-0.100000)">
    <path d="M2663 9942 l-2642 -2837 52 -7 c29 -3 757 -6 1619 -7 l1568 -1 2 -182 3 -183 2058 -3 2057 -2 0 185 0 185 1605 0 c883 0 1605 3 1605 6 0 8 79 -77 -1345 1454 -688 740 -1824 1962 -2524 2715 -1182 1271 -1411 1516 -1415 1514 0 0 -1190 -1277 -2643 -2837z"/>
    <path d="M4298 6653 c569 -2 1496 -2 2060 0 565 1 100 2 -1033 2 -1133 0 -1595 -1 -1027 -2z"/>
    <path d="M3265 6607 c-3 -7 -4 -131 -3 -277 l3 -265 2058 -3 2057 -2 0 280 0 280 -2055 0 c-1649 0 -2057 -3 -2060 -13z"/>
    <path d="M4333 5973 c560 -2 1474 -2 2030 0 557 1 99 2 -1018 2 -1116 0 -1572 -1 -1012 -2z"/>
    <path d="M3267 5903 c-4 -3 -7 -116 -7 -250 l0 -243 2060 0 2060 0 -2 248 -3 247 -2051 3 c-1128 1 -2054 -1 -2057 -5z"/>
    <path d="M3295 5360 c47 -12 4075 -12 4075 0 0 7 -690 10 -2052 9 -1129 -1 -2039 -5 -2023 -9z"/>
    <path d="M3267 5243 c-4 -3 -7 -111 -7 -238 l0 -232 68 -6 c86 -9 3999 -9 4030 -1 l22 6 -2 237 -3 236 -2051 3 c-1128 1 -2054 -1 -2057 -5z"/>
    <path d="M3267 4613 c-4 -3 -7 -102 -7 -219 l0 -213 53 -6 c28 -3 954 -5 2057 -3 l2005 3 0 220 0 220 -2051 3 c-1128 1 -2054 -1 -2057 -5z"/>
    <path d="M3267 3993 c-4 -3 -7 -93 -7 -199 l0 -192 63 -7 c34 -3 960 -5 2057 -3 l1995 3 0 200 0 200 -2051 3 c-1128 1 -2054 -1 -2057 -5z"/>
    <path d="M3264 3357 c-2 -7 -3 -89 -2 -182 l3 -170 2055 0 2055 0 0 180 0 180 -2053 3 c-1668 2 -2054 0 -2058 -11z"/>
    <path d="M3264 2737 c-2 -7 -3 -82 -2 -167 l3 -155 2058 -3 2057 -2 -2 167 -3 168 -2053 2 c-1668 2 -2054 1 -2058 -10z"/>
    <path d="M3264 2107 c-2 -7 -3 -71 -2 -143 l3 -129 2058 -3 2058 -2 -3 142 -3 143 -2053 3 c-1681 2 -2054 0 -2058 -11z"/>
    <path d="M3262 1368 l3 -123 2058 -3 2057 -2 0 125 0 125 -2060 0 -2061 0 3 -122z"/>
    <path d="M3264 857 c-3 -8 -3 -56 -2 -108 l3 -94 2058 -3 2058 -2 -3 107 -3 108 -2053 3 c-1698 2 -2053 0 -2058 -11z"/>
    <path d="M3262 158 l3 -83 2058 -3 2057 -2 0 85 0 85 -2060 0 -2061 0 3 -82z"/>
  </g>
</svg>