<svg viewBox="0 -256 1792 1792">
  <g transform="matrix(1,0,0,-1,68.338983,1384.1356)">
    <path d="M 768,512 V 128 Q 768,76 730,38 692,0 640,0 H 128 Q 76,0 38,38 0,76 0,128 v 384 q 0,52 38,90 38,38 90,38 h 512 q 52,0 90,-38 38,-38 38,-90 z m 0,768 V 896 q 0,-52 -38,-90 -38,-38 -90,-38 H 128 Q 76,768 38,806 0,844 0,896 v 384 q 0,52 38,90 38,38 90,38 h 512 q 52,0 90,-38 38,-38 38,-90 z M 1664,512 V 128 q 0,-52 -38,-90 -38,-38 -90,-38 h -512 q -52,0 -90,38 -38,38 -38,90 v 384 q 0,52 38,90 38,38 90,38 h 512 q 52,0 90,-38 38,-38 38,-90 z m 0,768 V 896 q 0,-52 -38,-90 -38,-38 -90,-38 h -512 q -52,0 -90,38 -38,38 -38,90 v 384 q 0,52 38,90 38,38 90,38 h 512 q 52,0 90,-38 38,-38 38,-90 z"/>
  </g>
</svg>