<svg viewBox="0 -256 1800 1800">
  <g transform="matrix(1,0,0,-1,7.5932203,1369.3559)">
    <path d="M 512,288 V 96 Q 512,56 484,28 456,0 416,0 H 96 Q 56,0 28,28 0,56 0,96 v 192 q 0,40 28,68 28,28 68,28 h 320 q 40,0 68,-28 28,-28 28,-68 z m 0,512 V 608 q 0,-40 -28,-68 -28,-28 -68,-28 H 96 Q 56,512 28,540 0,568 0,608 v 192 q 0,40 28,68 28,28 68,28 h 320 q 40,0 68,-28 28,-28 28,-68 z M 1792,288 V 96 Q 1792,56 1764,28 1736,0 1696,0 H 736 q -40,0 -68,28 -28,28 -28,68 v 192 q 0,40 28,68 28,28 68,28 h 960 q 40,0 68,-28 28,-28 28,-68 z M 512,1312 v -192 q 0,-40 -28,-68 -28,-28 -68,-28 H 96 q -40,0 -68,28 -28,28 -28,68 v 192 q 0,40 28,68 28,28 68,28 h 320 q 40,0 68,-28 28,-28 28,-68 z M 1792,800 V 608 q 0,-40 -28,-68 -28,-28 -68,-28 H 736 q -40,0 -68,28 -28,28 -28,68 v 192 q 0,40 28,68 28,28 68,28 h 960 q 40,0 68,-28 28,-28 28,-68 z m 0,512 v -192 q 0,-40 -28,-68 -28,-28 -68,-28 H 736 q -40,0 -68,28 -28,28 -28,68 v 192 q 0,40 28,68 28,28 68,28 h 960 q 40,0 68,-28 28,-28 28,-68 z"/>
  </g>
</svg>