<svg class="sl-spin-loader" viewBox="0 0 1000 1000" enable-background="new 0 0 1000 1000" xml:space="preserve">
  <g>
    <path d="M990,377.5H622.5l137.4-137.4C690.4,170.7,598.2,132.5,500,132.5c-98.2,0-190.4,38.2-259.9,107.6C170.7,309.6,132.5,401.8,132.5,500c0,98.2,38.2,190.4,107.6,259.9c69.4,69.4,161.7,107.6,259.9,107.6c98.2,0,190.4-38.2,259.9-107.6c5.8-5.8,11.4-11.8,16.7-17.9l92.2,80.7C778.9,925.2,647,990,500,990C229.4,990,10,770.6,10,500C10,229.4,229.4,10,500,10c135.3,0,257.8,54.9,346.5,143.5L990,10V377.5z"/>
  </g>
</svg>