<svg viewBox="0 0 1000 1000">
  <g>
    <g transform="translate(0.000000,511.000000) scale(0.100000,-0.100000)">
      <path d="M3957,4997.3c-508.9-50.4-844.5-219.3-980.5-493.5c-46.1-94.3-72.4-122.8-133.8-144.8c-105.3-35.1-241.3-160.1-302.7-283c-111.9-221.5-129.4-344.4-133.8-908.1l-4.4-524.2l-65.8-26.3c-74.6-32.9-162.3-142.6-199.6-250.1c-39.5-120.6-30.7-392.6,19.7-541.8c57-164.5,173.3-324.6,276.4-377.3c74.6-37.3,85.5-57,122.8-199.6c122.8-478.2,445.3-987.1,820.4-1300.7c63.6-52.7,68-65.8,59.2-164.5c-17.5-175.5-68-307.1-151.4-377.3c-94.3-83.3-640.5-350.9-1281-627.3c-862-372.9-1116.5-515.5-1351.2-761.1c-157.9-166.7-230.3-285.1-291.7-484.7c-85.5-280.8-116.3-888.4-57-1162.5c89.9-423.3,403.6-739.2,802.8-802.8c92.1-15.3,1039.7-24.1,2722.1-24.1h2581.7l-109.7,144.8c-140.4,186.4-267.6,438.7-342.2,682.2c-54.8,177.7-59.2,221.5-59.2,576.9c0,357.5,4.4,397,61.4,581.3c142.6,467.2,445.3,897.1,796.3,1134c46,30.7,30.7,39.5-351,204c-497.9,215-1015.6,476-1094.5,552.8c-65.8,63.6-116.3,199.6-136,370.7c-13.2,111.9-13.2,111.9,74.6,173.3c204,142.6,497.9,526.4,647.1,848.9c81.2,179.9,186.5,482.6,186.5,544c0,24.1,39.5,63.6,98.7,96.5c190.8,114.1,318.1,379.5,318.1,671.2c0,92.1-11,201.8-24.1,243.5c-39.5,111.9-127.2,217.1-210.6,254.4c-68,26.3-74.6,37.3-61.4,89.9c24.1,94.3,17.5,666.8-11,851.1c-52.7,353.2-153.5,662.4-265.4,816c-129.4,175.5-467.2,388.2-796.2,500.1C4810.2,4988.5,4354,5034.6,3957,4997.3z"/><path d="M7773.6-1319.9c-888.4-120.6-1520.1-842.3-1520.1-1732.8c0-980.5,756.7-1737.2,1737.2-1737.2c539.6,0,1009,221.6,1349,633.9c256.6,311.5,388.3,682.2,388.3,1103.3c0,592.2-274.2,1114.3-756.7,1445.5C8644.4-1383.6,8161.8-1267.3,7773.6-1319.9z M8194.8-2019.6c30.7-13.2,76.8-43.9,100.9-70.2c43.9-48.2,46-72.4,46-506.7v-456.2h247.9c223.7,0,254.5-4.4,289.5-43.9c30.7-35.1,37.3-57,19.7-98.7c-26.3-70.2-730.4-855.4-794-886.2c-65.8-30.7-177.7-28.5-236.9,4.4c-65.8,39.5-761.1,818.2-785.3,881.8c-17.5,41.7-11,63.6,19.8,98.7c35.1,39.5,65.8,43.9,289.5,43.9h247.9v456.2v456.2l61.4,57.1c32.9,30.7,74.6,61.4,92.1,68C7848.2-1995.5,8137.7-1997.7,8194.8-2019.6z"/>
    </g>
  </g>
</svg>